# xmcd
# 
# Track frame offsets:
#     150
#     21544
#     44289
#     65619
#     88364
# 
# Disc length: 1257
# 
# Revision: 0
# Processed by: cddbd v1.5.2PL0 Copyright (c) Steve Scherf et al.
# Submitted via: BonkEnc v1.0.6
# 
DISCID=4504e705
DTITLE=平原綾香 - ノクターン／カンパニュラの恋
DYEAR=2009
DGENRE=JPop
TTITLE0=ノクターン
TTITLE1=カンパニュラの恋
TTITLE2=ノクターン～Vocal-less Track～
TTITLE3=カンパニュラの恋～Vocal-less Track～
TTITLE4=special Track：BAMBINA
EXTD=
EXTT0=
EXTT1=
EXTT2=
EXTT3=
EXTT4=
PLAYORDER=
